<svg width="40" height="40" viewBox="0 0 40 40" fill="none" xmlns="http://www.w3.org/2000/svg">
<path d="M37.9526 15.802L35.145 15.3257C34.8525 14.3815 34.4765 13.4707 34.0169 12.6017L35.6714 10.2871C36.3733 9.30111 36.2647 7.95581 35.404 7.1035L32.9139 4.61344C32.446 4.14551 31.8277 3.88648 31.1676 3.88648C30.6495 3.88648 30.1565 4.04524 29.7387 4.34605L27.4158 6.00052C26.5133 5.52424 25.5691 5.13151 24.5915 4.83905L24.1235 2.06489C23.923 0.869992 22.8952 0.000976562 21.6836 0.000976562H18.1658C16.9541 0.000976562 15.9264 0.869992 15.7258 2.06489L15.2412 4.9059C14.3053 5.19836 13.3945 5.58273 12.5255 6.05066L10.2276 4.39619C9.80984 4.09537 9.30849 3.93661 8.79042 3.93661C8.1303 3.93661 7.50361 4.19565 7.04404 4.66358L4.54562 7.15364C3.69331 8.00594 3.57633 9.35124 4.27823 10.3372L5.94941 12.6853C5.48984 13.5626 5.12218 14.4734 4.83807 15.4176L2.06391 15.8856C0.869015 16.0861 0 17.1139 0 18.3255V21.8433C0 23.0549 0.869015 24.0827 2.06391 24.2833L4.90492 24.7679C5.19738 25.7038 5.58175 26.6146 6.04968 27.4836L4.40357 29.7731C3.70167 30.7591 3.8103 32.1044 4.67096 32.9567L7.16102 35.4468C7.62895 35.9147 8.24729 36.1737 8.9074 36.1737C9.42547 36.1737 9.91847 36.015 10.3363 35.7142L12.6843 34.043C13.5282 34.4858 14.414 34.8451 15.3247 35.1292L15.7927 37.9368C15.9932 39.1317 17.021 40.0007 18.2326 40.0007H21.7588C22.9704 40.0007 23.9982 39.1317 24.1987 37.9368L24.675 35.1292C25.6192 34.8368 26.53 34.4608 27.399 34.0012L29.7136 35.6557C30.1314 35.9565 30.6328 36.1152 31.1508 36.1152C31.811 36.1152 32.4293 35.8562 32.8972 35.3883L35.3873 32.8982C36.2396 32.0459 36.3566 30.7006 35.6547 29.7146L34.0002 27.3917C34.4598 26.5143 34.8442 25.6035 35.1283 24.6676L37.9358 24.1997C39.1307 23.9992 39.9998 22.9714 39.9998 21.7598V18.2419C40.0165 17.0303 39.1475 16.0026 37.9526 15.802ZM37.7604 21.7598C37.7604 21.8684 37.6852 21.9603 37.5765 21.977L34.0671 22.5619C33.6242 22.6371 33.2732 22.963 33.1646 23.3892C32.8471 24.6175 32.3625 25.7957 31.7107 26.8903C31.4851 27.2747 31.5018 27.751 31.7608 28.1186L33.8247 31.0265C33.8832 31.11 33.8749 31.2354 33.7997 31.3106L31.3096 33.8006C31.2511 33.8591 31.1926 33.8675 31.1508 33.8675C31.1007 33.8675 31.0589 33.8508 31.0255 33.8257L28.126 31.7618C27.7667 31.5028 27.2821 31.4861 26.8977 31.7117C25.8031 32.3634 24.6249 32.8481 23.3966 33.1656C22.9621 33.2742 22.6362 33.6335 22.5693 34.068L21.9761 37.5775C21.9593 37.6861 21.8674 37.7614 21.7588 37.7614H18.241C18.1323 37.7614 18.0404 37.6861 18.0237 37.5775L17.4388 34.068C17.3636 33.6252 17.0377 33.2742 16.6116 33.1656C15.4167 32.8564 14.2635 32.3801 13.1856 31.7618C13.0102 31.6615 12.8096 31.6114 12.6174 31.6114C12.3918 31.6114 12.1579 31.6782 11.9657 31.8203L9.0411 33.9009C8.99932 33.926 8.95754 33.9427 8.91576 33.9427C8.88234 33.9427 8.81549 33.9343 8.757 33.8759L6.26694 31.3858C6.19173 31.3106 6.18338 31.1936 6.24187 31.1017L8.29742 28.2189C8.55646 27.8512 8.57317 27.3666 8.34756 26.9822C7.6958 25.896 7.19444 24.7178 6.87692 23.4895C6.75993 23.0633 6.40899 22.7374 5.97448 22.6622L2.43993 22.0606C2.3313 22.0439 2.2561 21.952 2.2561 21.8433V18.3255C2.2561 18.2169 2.3313 18.125 2.43993 18.1082L5.92434 17.5233C6.36721 17.4481 6.72651 17.1222 6.83514 16.6877C7.14431 15.4594 7.62059 14.2729 8.264 13.1783C8.48961 12.7939 8.46454 12.3176 8.20551 11.9583L6.12489 9.03372C6.06639 8.95016 6.07475 8.82482 6.14995 8.74962L8.64002 6.25956C8.69851 6.20106 8.757 6.19271 8.79878 6.19271C8.84891 6.19271 8.89069 6.20942 8.92412 6.23449L11.8069 8.29004C12.1746 8.54908 12.6592 8.56579 13.0436 8.34018C14.1299 7.68842 15.308 7.18706 16.5364 6.86954C16.9625 6.75255 17.2884 6.40161 17.3636 5.9671L17.9652 2.43255C17.9819 2.32392 18.0738 2.24872 18.1825 2.24872H21.7003C21.8089 2.24872 21.9008 2.32392 21.9176 2.43255L22.5025 5.91696C22.5777 6.35983 22.9036 6.71913 23.3381 6.82776C24.5998 7.14528 25.8031 7.63828 26.9228 8.2984C27.3071 8.52401 27.7834 8.5073 28.1511 8.24826L31.0339 6.176C31.0756 6.15093 31.1174 6.13422 31.1592 6.13422C31.1926 6.13422 31.2595 6.14257 31.318 6.20106L33.808 8.69113C33.8832 8.76633 33.8916 8.88331 33.8331 8.97523L31.7692 11.8747C31.5102 12.234 31.4934 12.7187 31.7191 13.103C32.3708 14.1977 32.8555 15.3759 33.173 16.6042C33.2816 17.0387 33.6409 17.3646 34.0754 17.4314L37.5849 18.0247C37.6935 18.0414 37.7687 18.1333 37.7687 18.2419V21.7598H37.7604V21.7598Z" fill="#39A2DB"/>
<path d="M20.0041 11.365C15.2412 11.365 11.3724 15.2338 11.3724 19.9966C11.3724 24.7595 15.2412 28.6283 20.0041 28.6283C24.7669 28.6283 28.6357 24.7595 28.6357 19.9966C28.6357 15.2338 24.7669 11.365 20.0041 11.365ZM20.0041 26.3722C16.4862 26.3722 13.6285 23.5145 13.6285 19.9966C13.6285 16.4788 16.4862 13.6211 20.0041 13.6211C23.5219 13.6211 26.3796 16.4788 26.3796 19.9966C26.3796 23.5145 23.5219 26.3722 20.0041 26.3722Z" fill="#39A2DB"/>
</svg>
